<?xml version="1.0" encoding="utf-8"?>
<!-- Generator: Adobe Illustrator 16.0.0, SVG Export Plug-In . SVG Version: 6.00 Build 0)  -->
<!DOCTYPE svg PUBLIC "-//W3C//DTD SVG 1.1//EN" "http://www.w3.org/Graphics/SVG/1.1/DTD/svg11.dtd">
<svg version="1.1" id="Calque_1" xmlns="http://www.w3.org/2000/svg" xmlns:xlink="http://www.w3.org/1999/xlink" x="0px" y="0px"
	 width="20px" height="18.001px" viewBox="0 0 20 18.001" enable-background="new 0 0 20 18.001" xml:space="preserve">
<g>
	<defs>
		<path id="SVGID_1_" d="M18.284,9.845L18.284,9.845L10,18.001L1.716,9.845c-2.288-2.252-2.288-5.902,0-8.154
			c2.288-2.254,5.997-2.254,8.284,0c2.288-2.254,5.997-2.254,8.284,0C20.572,3.942,20.572,7.593,18.284,9.845z M16.881,8.419
			L16.881,8.419c1.492-1.467,1.492-3.836,0-5.305c-1.509-1.484-3.969-1.484-5.478,0L10,4.495L8.597,3.114
			c-1.509-1.484-3.969-1.484-5.478,0c-1.492,1.469-1.492,3.838,0,5.305l8.285,8.156H8.597L16.881,8.419z"/>
	</defs>
	<use xlink:href="#SVGID_1_"  overflow="visible" fill="#E23534"/>
	<clipPath id="SVGID_2_">
		<use xlink:href="#SVGID_1_"  overflow="visible"/>
	</clipPath>
</g>
</svg>
