<?xml version="1.0" encoding="utf-8"?>
<!-- Generator: Adobe Illustrator 16.0.0, SVG Export Plug-In . SVG Version: 6.00 Build 0)  -->
<!DOCTYPE svg PUBLIC "-//W3C//DTD SVG 1.1//EN" "http://www.w3.org/Graphics/SVG/1.1/DTD/svg11.dtd">
<svg version="1.1" id="Calque_1" xmlns="http://www.w3.org/2000/svg" xmlns:xlink="http://www.w3.org/1999/xlink" x="0px" y="0px"
	 width="54.514px" height="54.546px" viewBox="0 0 54.514 54.546" enable-background="new 0 0 54.514 54.546" xml:space="preserve">
<g>
	<defs>
		<path id="SVGID_1_" d="M47.516,27.657c-0.104-0.046-0.209-0.087-0.312-0.127c0.764-0.479,1.523-1.279,1.523-2.658
			c0-0.942-0.286-1.689-0.852-2.219c-0.869-0.823-2.086-0.887-2.438-0.887h-6.65c-0.109,0-0.346-0.118-0.379-0.131
			c-0.213-1.173-0.457-2.502,0.689-4.777c0.566-1.127,0.543-3.41-0.058-5.678c-0.562-2.145-1.573-4.05-2.853-5.363
			c-0.025-0.027-0.053-0.051-0.08-0.073c-0.284-0.218-1.307-0.913-2.483-0.706c-0.769,0.135-1.413,0.607-1.921,1.402
			c-0.076,0.121-0.117,0.26-0.117,0.402l-0.008,5.365c-0.07,0.688-0.324,2.087-0.836,2.976c-0.385,0.674-2.203,3.625-3.902,6.234
			c-1.595,2.449-2.188,3.205-2.403,3.441c-0.697,0.774-2.127,0.854-2.918,0.823c-0.392-0.002-0.761,0.312-0.774,0.727
			c-0.013,0.414,0.313,0.76,0.727,0.773c1.281,0.038,3.032-0.156,4.079-1.317c0.429-0.473,1.285-1.693,2.546-3.629
			c1.6-2.459,3.498-5.522,3.947-6.307c0.766-1.334,0.988-3.208,1.008-3.472c0.029-0.12,0.033-0.228,0.033-0.31V7.075
			c0.242-0.325,0.506-0.508,0.797-0.561c0.541-0.094,1.107,0.273,1.271,0.39c1.082,1.131,1.944,2.782,2.437,4.659
			c0.557,2.106,0.502,3.953,0.168,4.62c-1.371,2.726-1.055,4.457-0.824,5.723c0.16,0.876,1.199,1.36,1.854,1.36h6.65
			c0.336,0,1.011,0.101,1.41,0.479c0.254,0.239,0.379,0.608,0.379,1.127c0,1.067-0.795,1.457-1.752,1.824l-0.188,0.074
			c-0.205,0.081-0.832,0.331-0.789,0.963c0.045,0.635,0.635,0.779,1.203,0.919c0.357,0.088,0.801,0.196,1.203,0.375
			c0.52,0.232,1.209,1.322,1.098,2.351c-0.141,1.271-1.439,1.797-2.507,2.017c-0.671,0.14-0.917,0.576-0.926,0.938
			c-0.005,0.288,0.116,0.805,1.019,1.035c0.17,0.049,0.697,0.585,0.729,1.292c0.041,0.96-0.904,1.532-1.711,1.845
			c-0.049,0.021-0.094,0.034-0.137,0.047c-0.242,0.078-0.748,0.24-0.891,0.902c-0.156,0.687,0.447,1.028,0.676,1.156
			c0.361,0.205,0.737,0.417,0.737,1.414c0,0.325-0.088,0.644-0.265,0.945c-0.18,0.308-0.637,0.646-0.885,0.829
			c-0.451,0.337-1.469,0.759-1.978,0.866l-0.103,0.022c-3.285,0.669-7.383,1.501-13.517,1.414c-3.216-0.049-5.011-0.983-5.873-1.432
			c-0.505-0.263-0.87-0.451-1.291-0.235c-0.357,0.181-0.471,0.594-0.31,0.959c0.157,0.352,0.588,0.514,0.953,0.395
			c-0.175,0.078-0.336,0.06-0.398,0.038c0.082,0.029,0.197,0.093,0.353,0.174c0.965,0.502,2.974,1.547,6.543,1.602
			c0.307,0.005,0.605,0.007,0.901,0.007c5.81,0,9.746-0.802,12.937-1.452l0.109-0.022c0.691-0.146,1.918-0.647,2.566-1.131
			c0.461-0.34,0.977-0.748,1.287-1.278c0.311-0.533,0.469-1.106,0.469-1.7c0-1.25-0.452-1.922-0.898-2.312
			c2.029-0.953,2.268-2.376,2.217-3.171c-0.045-0.742-0.393-1.49-0.875-2.004c1.994-0.763,2.465-2.156,2.557-2.995
			C49.68,29.831,48.623,28.152,47.516,27.657z M18.712,25.975c-0.014,0.058-0.021,0.117-0.021,0.177V47.07
			c0,0.848-0.376,0.976-0.599,0.976v0.75l-0.02-0.75h-7.355c-2.874,0-2.981-2.684-2.985-3.039c-0.01-0.143-1.01-14.344-1.222-17.964
			c-0.051-0.86,0.121-1.505,0.509-1.917c0.514-0.547,1.332-0.604,1.66-0.604c0.094,0,0.155,0.005,0.245,0.009h8.793
			c0.412,0,0.695,0.096,0.847,0.286C18.826,25.146,18.757,25.781,18.712,25.975z M17.717,23.03l-8.713,0.004
			c0,0-0.123-0.013-0.325-0.013c-0.648,0-1.869,0.139-2.752,1.075c-0.682,0.726-0.992,1.746-0.916,3.034
			c0.213,3.628,1.215,17.838,1.222,17.929c0,1.552,0.937,4.486,4.484,4.486l7.316-0.001c0.014,0.001,0.047,0.001,0.059,0.001
			c0.779,0,2.099-0.521,2.099-2.476V26.231c0.069-0.357,0.22-1.492-0.446-2.341C19.435,23.498,18.833,23.03,17.717,23.03z"/>
	</defs>
	<clipPath id="SVGID_2_">
		<use xlink:href="#SVGID_1_"  overflow="visible"/>
	</clipPath>
	<rect clip-path="url(#SVGID_2_)" fill="#5B5C59" width="54.514" height="54.546"/>
</g>
</svg>
