<?xml version="1.0" encoding="utf-8"?>
<!-- Generator: Adobe Illustrator 16.0.0, SVG Export Plug-In . SVG Version: 6.00 Build 0)  -->
<!DOCTYPE svg PUBLIC "-//W3C//DTD SVG 1.1//EN" "http://www.w3.org/Graphics/SVG/1.1/DTD/svg11.dtd">
<svg version="1.1" id="Calque_1" xmlns="http://www.w3.org/2000/svg" xmlns:xlink="http://www.w3.org/1999/xlink" x="0px" y="0px"
	 width="62.623px" height="47.371px" viewBox="0 0 62.623 47.371" enable-background="new 0 0 62.623 47.371" xml:space="preserve">
<g>
	<defs>
		<path id="SVGID_1_" d="M36.005,18.864v4.354h-7.916l-0.414-4.354H36.005z M27.108,12.907h8.897v4.457h-8.473L27.108,12.907z
			 M25.98,28.953c-0.413,0-1-0.332-1.207-0.685l-2.101-3.55h4.053l0.404,4.234H25.98z M19.208,18.864h6.96l0.414,4.354h-4.797
			L19.208,18.864z M15.683,12.907h9.918l0.424,4.457H18.32L15.683,12.907z M36.005,28.953h-7.37l-0.403-4.234h7.773V28.953z
			 M31.421,36.141c1.304,0,2.364,1.062,2.364,2.369c0,1.302-1.061,2.361-2.364,2.361c-1.302,0-2.362-1.06-2.362-2.361
			C29.059,37.203,30.119,36.141,31.421,36.141z M47.633,36.141c1.303,0,2.364,1.062,2.364,2.369c0,1.302-1.062,2.361-2.364,2.361
			c-1.304,0-2.365-1.06-2.365-2.361C45.268,37.203,46.329,36.141,47.633,36.141z M37.505,24.719h7.776l-0.404,4.234h-7.372V24.719z
			 M37.505,18.864h8.333l-0.415,4.354h-7.918V18.864z M37.505,12.907h8.899l-0.424,4.457h-8.476V12.907z M50.59,24.719l-1.658,3.555
			c-0.166,0.349-0.688,0.68-1.074,0.68h-1.474l0.403-4.234H50.59z M47.346,18.864h5.98l-2.035,4.354H46.93L47.346,18.864z
			 M47.912,12.907h8.148c0.017,0,0.031,0.001,0.045,0.002c-0.006,0.012-0.012,0.026-0.02,0.044l-2.062,4.414
			c-0.004,0-0.01-0.003-0.015-0.003h-6.521L47.912,12.907z M27.954,30.465c0.023,0,0.047-0.001,0.072-0.003
			c0.01-0.001,0.018-0.008,0.029-0.009h8.642c0.02,0.002,0.037,0.012,0.058,0.012s0.038-0.01,0.058-0.012h8.646
			c0.01,0.001,0.019,0.008,0.028,0.009c0.025,0.002,0.049,0.003,0.072,0.003c0.021,0,0.041-0.01,0.062-0.012h2.236
			c0.97,0,2.013-0.661,2.431-1.542l7.155-15.321c0.25-0.528,0.238-1.078-0.034-1.508c-0.272-0.429-0.765-0.675-1.349-0.675H14.797
			l-3.891-6.062C10.768,5.13,10.53,5,10.275,5H5.75C5.336,5,5,5.336,5,5.75S5.336,6.5,5.75,6.5h4.115l3.798,5.917
			c0.001,0.001,0.002,0.003,0.003,0.004c0.015,0.04,0.034,0.079,0.056,0.117l9.759,16.494c0.036,0.06,0.081,0.116,0.122,0.174
			l3.319,5.507c0.331,0.562,0.948,1.023,1.61,1.256c-0.598,0.683-0.973,1.565-0.973,2.541c0,2.129,1.732,3.861,3.862,3.861
			c2.131,0,3.864-1.732,3.864-3.861c0-0.897-0.32-1.716-0.835-2.373h10.153c-0.516,0.657-0.836,1.476-0.836,2.373
			c0,2.129,1.734,3.861,3.865,3.861s3.864-1.732,3.864-3.861c0-1.966-1.476-3.575-3.374-3.818c-0.083-0.032-0.17-0.055-0.266-0.055
			H29.419c-0.412,0-0.997-0.333-1.209-0.69l-2.104-3.493h1.786C27.913,30.455,27.932,30.465,27.954,30.465z"/>
	</defs>
	<clipPath id="SVGID_2_">
		<use xlink:href="#SVGID_1_"  overflow="visible"/>
	</clipPath>
	<rect clip-path="url(#SVGID_2_)" fill="#5B5C59" width="62.623" height="47.371"/>
</g>
</svg>
